<?xml version="1.0" encoding="utf-8"?>
<!-- Generator: Adobe Illustrator 14.0.0, SVG Export Plug-In  -->
<!DOCTYPE svg PUBLIC "-//W3C//DTD SVG 1.1//EN" "http://www.w3.org/Graphics/SVG/1.1/DTD/svg11.dtd" [
	<!ENTITY ns_flows "http://ns.adobe.com/Flows/1.0/">
]>
<svg version="1.1"
	 xmlns="http://www.w3.org/2000/svg" xmlns:xlink="http://www.w3.org/1999/xlink" xmlns:a="http://ns.adobe.com/AdobeSVGViewerExtensions/3.0/"
	 x="0px" y="0px" width="100px" height="50px" viewBox="-8.58 -8.794 100 50" enable-background="new -8.58 -8.794 100 50"
	 xml:space="preserve">
<defs>
</defs>
<path d="M4.427,0.576v24.26H0V0.576H4.427z"/>
<path d="M8.917,12.526c0-2.016-0.072-3.708-0.144-5.219h3.851l0.216,2.627h0.108c0.792-1.368,2.7-3.023,5.615-3.023
	c3.06,0,6.227,1.98,6.227,7.523v10.402h-4.427v-9.898c0-2.52-0.936-4.427-3.348-4.427c-1.764,0-2.988,1.26-3.456,2.592
	c-0.144,0.36-0.216,0.9-0.216,1.404v10.33H8.917V12.526z"/>
<path d="M24.753,29.048c1.44-0.108,2.592-0.504,3.312-1.26c0.828-0.899,1.152-2.268,1.152-6.083V7.307h4.427v15.658
	c0,3.635-0.72,5.902-2.304,7.486c-1.512,1.44-3.959,2.053-6.155,2.053L24.753,29.048z M33.932,2.412c0,1.296-0.936,2.376-2.52,2.376
	c-1.512,0-2.448-1.08-2.448-2.376c0-1.368,1.008-2.412,2.52-2.412C32.96,0,33.896,1.044,33.932,2.412z"/>
<path d="M41.028,17.314c0.108,3.167,2.556,4.535,5.399,4.535c2.052,0,3.491-0.323,4.859-0.792l0.647,3.023
	c-1.512,0.648-3.6,1.116-6.119,1.116c-5.687,0-9.035-3.491-9.035-8.855c0-4.859,2.952-9.431,8.567-9.431
	c5.688,0,7.56,4.68,7.56,8.531c0,0.828-0.072,1.476-0.145,1.872H41.028z M48.731,14.218c0.036-1.62-0.684-4.284-3.636-4.284
	c-2.735,0-3.887,2.484-4.067,4.284H48.731z"/>
<path d="M69.149,24.297c-0.936,0.432-2.771,0.899-4.967,0.899c-5.472,0-9.035-3.527-9.035-8.963c0-5.255,3.6-9.323,9.755-9.323
	c1.62,0,3.275,0.36,4.283,0.792l-0.792,3.348c-0.72-0.36-1.764-0.684-3.348-0.684c-3.383,0-5.398,2.484-5.363,5.688
	c0,3.599,2.34,5.651,5.363,5.651c1.512,0,2.628-0.324,3.492-0.684L69.149,24.297z"/>
<path d="M77.801,2.808v4.5h4.211v3.312h-4.211v7.739c0,2.16,0.576,3.239,2.268,3.239c0.792,0,1.224-0.036,1.729-0.18l0.071,3.348
	c-0.647,0.252-1.836,0.468-3.204,0.468c-1.655,0-2.987-0.54-3.814-1.439c-0.973-1.008-1.404-2.628-1.404-4.932v-8.243h-2.484V7.307
	h2.484V4.032L77.801,2.808z"/>
</svg>
