<?xml version="1.0" encoding="utf-8"?>
<!-- Generator: Adobe Illustrator 14.0.0, SVG Export Plug-In  -->
<!DOCTYPE svg PUBLIC "-//W3C//DTD SVG 1.1//EN" "http://www.w3.org/Graphics/SVG/1.1/DTD/svg11.dtd" [
	<!ENTITY ns_flows "http://ns.adobe.com/Flows/1.0/">
]>
<svg version="1.1"
	 xmlns="http://www.w3.org/2000/svg" xmlns:xlink="http://www.w3.org/1999/xlink" xmlns:a="http://ns.adobe.com/AdobeSVGViewerExtensions/3.0/"
	 x="0px" y="0px" width="150px" height="65px" viewBox="-8.58 -10.794 150 65" enable-background="new -8.58 -10.794 150 65"
	 xml:space="preserve">
<defs>
</defs>
<path fill="#1199DD" d="M4.427,0.576v24.26H0V0.576H4.427z"/>
<path fill="#1199DD" d="M8.917,12.526c0-2.016-0.072-3.708-0.144-5.219h3.851l0.216,2.627h0.108c0.792-1.368,2.7-3.023,5.615-3.023
	c3.06,0,6.227,1.98,6.227,7.523v10.402h-4.427v-9.898c0-2.52-0.936-4.427-3.348-4.427c-1.764,0-2.988,1.26-3.456,2.592
	c-0.144,0.36-0.216,0.9-0.216,1.404v10.33H8.917V12.526z"/>
<path fill="#1199DD" d="M24.753,29.048c1.44-0.108,2.592-0.504,3.312-1.26c0.828-0.899,1.152-2.268,1.152-6.083V7.307h4.427v15.658
	c0,3.635-0.72,5.902-2.304,7.486c-1.512,1.44-3.959,2.053-6.155,2.053L24.753,29.048z M33.932,2.412c0,1.296-0.936,2.376-2.52,2.376
	c-1.512,0-2.448-1.08-2.448-2.376c0-1.368,1.008-2.412,2.52-2.412C32.96,0,33.896,1.044,33.932,2.412z"/>
<path fill="#1199DD" d="M41.028,17.314c0.108,3.167,2.556,4.535,5.399,4.535c2.052,0,3.491-0.324,4.859-0.792l0.648,3.023
	c-1.512,0.648-3.6,1.116-6.119,1.116c-5.688,0-9.035-3.492-9.035-8.855c0-4.859,2.952-9.431,8.567-9.431
	c5.688,0,7.559,4.68,7.559,8.531c0,0.828-0.072,1.476-0.144,1.872H41.028z M48.731,14.218c0.036-1.62-0.684-4.284-3.636-4.284
	c-2.735,0-3.887,2.484-4.067,4.284H48.731z"/>
<path fill="#1199DD" d="M69.149,24.297c-0.936,0.432-2.771,0.899-4.967,0.899c-5.472,0-9.035-3.527-9.035-8.963
	c0-5.255,3.6-9.323,9.755-9.323c1.62,0,3.275,0.36,4.283,0.792l-0.792,3.348c-0.72-0.36-1.764-0.684-3.347-0.684
	c-3.384,0-5.399,2.484-5.363,5.688c0,3.599,2.339,5.651,5.363,5.651c1.512,0,2.627-0.324,3.492-0.684L69.149,24.297z"/>
<path fill="#1199DD" d="M77.801,2.808v4.5h4.211v3.312h-4.211v7.739c0,2.16,0.576,3.239,2.268,3.239c0.792,0,1.224-0.036,1.729-0.18
	l0.071,3.348c-0.647,0.252-1.836,0.468-3.204,0.468c-1.655,0-2.987-0.54-3.814-1.439c-0.973-1.008-1.404-2.628-1.404-4.932v-8.243
	h-2.484V7.307h2.484V4.032L77.801,2.808z"/>
<path fill="#1199DD" d="M0.28,33.709c0.462-0.076,1.067-0.143,1.837-0.143c0.946,0,1.639,0.221,2.079,0.616
	c0.396,0.353,0.649,0.892,0.649,1.552c0,0.67-0.198,1.199-0.572,1.584c-0.517,0.539-1.331,0.814-2.266,0.814
	c-0.286,0-0.55-0.012-0.77-0.066v2.971H0.28V33.709z M1.238,37.286c0.209,0.055,0.473,0.077,0.792,0.077
	c1.155,0,1.859-0.572,1.859-1.573c0-0.99-0.704-1.463-1.75-1.463c-0.418,0-0.737,0.033-0.902,0.076V37.286z"/>
<path fill="#1199DD" d="M6.625,35.712l1.155,3.146c0.132,0.353,0.264,0.771,0.352,1.089h0.022c0.099-0.318,0.209-0.727,0.341-1.111
	l1.056-3.124h1.023l-1.452,3.796c-0.693,1.826-1.166,2.75-1.826,3.333c-0.484,0.407-0.946,0.572-1.188,0.616l-0.242-0.803
	c0.242-0.078,0.561-0.231,0.847-0.474c0.264-0.209,0.583-0.583,0.814-1.078c0.044-0.099,0.077-0.176,0.077-0.231
	c0-0.055-0.022-0.131-0.077-0.252l-1.958-4.907H6.625z"/>
<path fill="#1199DD" d="M12.938,34.436v1.276h1.386v0.737h-1.386v2.871c0,0.66,0.187,1.034,0.726,1.034
	c0.264,0,0.418-0.022,0.561-0.065l0.044,0.736c-0.187,0.066-0.484,0.133-0.858,0.133c-0.451,0-0.814-0.154-1.045-0.408
	c-0.264-0.297-0.374-0.77-0.374-1.396V36.45h-0.825v-0.737h0.825v-0.99L12.938,34.436z"/>
<path fill="#1199DD" d="M15.326,33.226h0.968v3.333h0.022c0.154-0.275,0.396-0.527,0.693-0.693c0.286-0.164,0.627-0.264,0.99-0.264
	c0.715,0,1.859,0.44,1.859,2.267v3.169h-0.968v-3.059c0-0.858-0.319-1.574-1.232-1.574c-0.627,0-1.111,0.441-1.298,0.958
	c-0.055,0.143-0.066,0.286-0.066,0.462v3.213h-0.968V33.226z"/>
<path fill="#1199DD" d="M26.225,38.331c0,1.969-1.375,2.828-2.651,2.828c-1.43,0-2.552-1.057-2.552-2.74
	c0-1.771,1.177-2.816,2.641-2.816C25.191,35.602,26.225,36.713,26.225,38.331z M22.012,38.385c0,1.166,0.66,2.047,1.606,2.047
	c0.924,0,1.617-0.869,1.617-2.068c0-0.902-0.451-2.035-1.595-2.035C22.507,36.329,22.012,37.385,22.012,38.385z"/>
<path fill="#1199DD" d="M27.422,37.153c0-0.561-0.011-1-0.044-1.44h0.858l0.055,0.88h0.022c0.264-0.495,0.88-0.99,1.76-0.99
	c0.737,0,1.881,0.44,1.881,2.267v3.169h-0.968v-3.07c0-0.857-0.319-1.572-1.232-1.572c-0.627,0-1.122,0.451-1.298,0.99
	c-0.044,0.12-0.066,0.285-0.066,0.45v3.202h-0.968V37.153z"/>
<path fill="#1199DD" d="M40.446,33.226v6.437c0,0.473,0.022,1.012,0.044,1.375h-0.858l-0.044-0.925h-0.033
	c-0.286,0.595-0.924,1.046-1.793,1.046c-1.287,0-2.289-1.09-2.289-2.707c-0.011-1.771,1.1-2.85,2.387-2.85
	c0.825,0,1.364,0.385,1.606,0.803h0.022v-3.179H40.446z M39.489,37.879c0-0.121-0.011-0.285-0.044-0.406
	c-0.143-0.605-0.671-1.111-1.397-1.111c-1.001,0-1.595,0.88-1.595,2.046c0,1.078,0.54,1.97,1.573,1.97
	c0.649,0,1.243-0.44,1.419-1.156c0.033-0.131,0.044-0.264,0.044-0.418V37.879z"/>
<path fill="#1199DD" d="M42.577,38.551c0.022,1.309,0.847,1.848,1.826,1.848c0.693,0,1.122-0.121,1.474-0.275l0.176,0.693
	c-0.341,0.154-0.935,0.342-1.782,0.342c-1.64,0-2.619-1.09-2.619-2.695c0-1.607,0.946-2.861,2.498-2.861
	c1.749,0,2.2,1.519,2.2,2.498c0,0.197-0.011,0.341-0.033,0.451H42.577z M45.416,37.858c0.011-0.605-0.253-1.563-1.342-1.563
	c-0.99,0-1.408,0.891-1.485,1.563H45.416z"/>
<path fill="#1199DD" d="M47.525,37.451c0-0.683-0.022-1.232-0.044-1.738h0.858l0.055,0.913h0.022
	c0.385-0.648,1.023-1.023,1.892-1.023c1.298,0,2.267,1.09,2.267,2.695c0,1.914-1.177,2.861-2.432,2.861
	c-0.704,0-1.32-0.309-1.639-0.837h-0.022v2.894h-0.957V37.451z M48.482,38.87c0,0.143,0.011,0.275,0.044,0.396
	c0.176,0.671,0.759,1.133,1.452,1.133c1.023,0,1.617-0.836,1.617-2.057c0-1.057-0.561-1.97-1.584-1.97
	c-0.66,0-1.287,0.462-1.463,1.188c-0.033,0.121-0.066,0.264-0.066,0.385V38.87z"/>
<path fill="#1199DD" d="M54.395,38.551c0.022,1.309,0.847,1.848,1.826,1.848c0.693,0,1.122-0.121,1.474-0.275l0.176,0.693
	c-0.341,0.154-0.935,0.342-1.782,0.342c-1.64,0-2.619-1.09-2.619-2.695c0-1.607,0.946-2.861,2.498-2.861
	c1.749,0,2.2,1.519,2.2,2.498c0,0.197-0.011,0.341-0.033,0.451H54.395z M57.233,37.858c0.011-0.605-0.253-1.563-1.342-1.563
	c-0.99,0-1.408,0.891-1.485,1.563H57.233z"/>
<path fill="#1199DD" d="M59.339,37.153c0-0.561-0.011-1-0.044-1.44h0.858l0.055,0.88h0.022c0.264-0.495,0.88-0.99,1.76-0.99
	c0.737,0,1.881,0.44,1.881,2.267v3.169h-0.968v-3.07c0-0.857-0.319-1.572-1.232-1.572c-0.627,0-1.122,0.451-1.298,0.99
	c-0.044,0.12-0.066,0.285-0.066,0.45v3.202h-0.968V37.153z"/>
<path fill="#1199DD" d="M70.011,33.226v6.437c0,0.473,0.022,1.012,0.044,1.375h-0.857l-0.045-0.925H69.12
	c-0.285,0.595-0.924,1.046-1.792,1.046c-1.287,0-2.289-1.09-2.289-2.707c-0.011-1.771,1.1-2.85,2.388-2.85
	c0.824,0,1.363,0.385,1.605,0.803h0.022v-3.179H70.011z M69.054,37.879c0-0.121-0.011-0.285-0.044-0.406
	c-0.143-0.605-0.671-1.111-1.397-1.111c-1.001,0-1.595,0.88-1.595,2.046c0,1.078,0.54,1.97,1.573,1.97c0.65,0,1.244-0.44,1.42-1.156
	c0.033-0.131,0.044-0.264,0.044-0.418V37.879z"/>
<path fill="#1199DD" d="M72.147,38.551c0.021,1.309,0.848,1.848,1.826,1.848c0.693,0,1.122-0.121,1.475-0.275l0.176,0.693
	c-0.342,0.154-0.936,0.342-1.782,0.342c-1.64,0-2.618-1.09-2.618-2.695c0-1.607,0.945-2.861,2.497-2.861
	c1.749,0,2.2,1.519,2.2,2.498c0,0.197-0.011,0.341-0.033,0.451H72.147z M74.985,37.858c0.012-0.605-0.252-1.563-1.342-1.563
	c-0.99,0-1.408,0.891-1.485,1.563H74.985z"/>
<path fill="#1199DD" d="M77.091,37.153c0-0.561-0.011-1-0.044-1.44h0.857l0.056,0.88h0.022c0.264-0.495,0.879-0.99,1.76-0.99
	c0.736,0,1.881,0.44,1.881,2.267v3.169h-0.968v-3.07c0-0.857-0.319-1.572-1.232-1.572c-0.627,0-1.122,0.451-1.298,0.99
	c-0.044,0.12-0.066,0.285-0.066,0.45v3.202h-0.968V37.153z"/>
<path fill="#1199DD" d="M86.964,40.85c-0.253,0.121-0.813,0.309-1.529,0.309c-1.606,0-2.651-1.09-2.651-2.718
	c0-1.64,1.122-2.839,2.86-2.839c0.572,0,1.078,0.143,1.343,0.286l-0.221,0.737c-0.23-0.121-0.594-0.253-1.122-0.253
	c-1.222,0-1.882,0.913-1.882,2.013c0,1.232,0.793,1.992,1.85,1.992c0.549,0,0.912-0.133,1.188-0.254L86.964,40.85z"/>
<path fill="#1199DD" d="M88.681,35.712l1.155,3.146c0.132,0.353,0.264,0.771,0.352,1.089h0.022c0.099-0.318,0.209-0.727,0.341-1.111
	l1.057-3.124h1.022l-1.452,3.796c-0.693,1.826-1.166,2.75-1.826,3.333c-0.484,0.407-0.946,0.572-1.188,0.616l-0.242-0.803
	c0.242-0.078,0.561-0.231,0.847-0.474c0.265-0.209,0.583-0.583,0.813-1.078c0.045-0.099,0.078-0.176,0.078-0.231
	c0-0.055-0.022-0.131-0.078-0.252l-1.957-4.907H88.681z"/>
<path fill="#1199DD" d="M96.92,34.216c0,0.33-0.231,0.594-0.617,0.594c-0.352,0-0.582-0.264-0.582-0.594s0.242-0.605,0.604-0.605
	C96.678,33.611,96.92,33.875,96.92,34.216z M95.842,41.038v-5.325h0.968v5.325H95.842z"/>
<path fill="#1199DD" d="M98.34,37.153c0-0.561-0.011-1-0.043-1.44h0.857l0.055,0.88h0.022c0.265-0.495,0.88-0.99,1.761-0.99
	c0.736,0,1.881,0.44,1.881,2.267v3.169h-0.969v-3.07c0-0.857-0.318-1.572-1.232-1.572c-0.627,0-1.121,0.451-1.297,0.99
	c-0.045,0.12-0.066,0.285-0.066,0.45v3.202H98.34V37.153z"/>
<path fill="#1199DD" d="M102.986,42.599c0.45-0.032,0.825-0.153,1.056-0.418c0.264-0.297,0.375-0.715,0.375-1.991v-4.478h0.967
	v4.852c0,1.034-0.164,1.706-0.637,2.189c-0.43,0.429-1.134,0.604-1.65,0.604L102.986,42.599z M105.495,34.216
	c0,0.319-0.221,0.594-0.617,0.594c-0.352,0-0.582-0.274-0.582-0.594c0-0.33,0.241-0.605,0.604-0.605S105.495,33.886,105.495,34.216z
	"/>
<path fill="#1199DD" d="M107.481,38.551c0.021,1.309,0.847,1.848,1.826,1.848c0.692,0,1.121-0.121,1.474-0.275l0.177,0.693
	c-0.342,0.154-0.936,0.342-1.783,0.342c-1.639,0-2.618-1.09-2.618-2.695c0-1.607,0.946-2.861,2.497-2.861
	c1.75,0,2.201,1.519,2.201,2.498c0,0.197-0.012,0.341-0.033,0.451H107.481z M110.319,37.858c0.011-0.605-0.253-1.563-1.342-1.563
	c-0.99,0-1.408,0.891-1.486,1.563H110.319z"/>
<path fill="#1199DD" d="M116.301,40.85c-0.252,0.121-0.813,0.309-1.529,0.309c-1.605,0-2.65-1.09-2.65-2.718
	c0-1.64,1.121-2.839,2.859-2.839c0.572,0,1.078,0.143,1.343,0.286l-0.22,0.737c-0.231-0.121-0.594-0.253-1.123-0.253
	c-1.221,0-1.881,0.913-1.881,2.013c0,1.232,0.793,1.992,1.849,1.992c0.55,0,0.913-0.133,1.188-0.254L116.301,40.85z"/>
<path fill="#1199DD" d="M118.799,34.436v1.276h1.387v0.737h-1.387v2.871c0,0.66,0.188,1.034,0.727,1.034
	c0.264,0,0.418-0.022,0.561-0.065l0.044,0.736c-0.187,0.066-0.483,0.133-0.858,0.133c-0.451,0-0.813-0.154-1.045-0.408
	c-0.264-0.297-0.374-0.77-0.374-1.396V36.45h-0.825v-0.737h0.825v-0.99L118.799,34.436z"/>
<path fill="#1199DD" d="M122.266,34.216c0,0.33-0.231,0.594-0.617,0.594c-0.352,0-0.582-0.264-0.582-0.594s0.242-0.605,0.604-0.605
	C122.024,33.611,122.266,33.875,122.266,34.216z M121.188,41.038v-5.325h0.968v5.325H121.188z"/>
<path fill="#1199DD" d="M128.542,38.331c0,1.969-1.375,2.828-2.651,2.828c-1.43,0-2.553-1.057-2.553-2.74
	c0-1.771,1.178-2.816,2.641-2.816C127.508,35.602,128.542,36.713,128.542,38.331z M124.329,38.385c0,1.166,0.66,2.047,1.607,2.047
	c0.924,0,1.617-0.869,1.617-2.068c0-0.902-0.451-2.035-1.596-2.035C124.825,36.329,124.329,37.385,124.329,38.385z"/>
<path fill="#1199DD" d="M129.743,37.153c0-0.561-0.011-1-0.043-1.44h0.857l0.055,0.88h0.022c0.265-0.495,0.88-0.99,1.761-0.99
	c0.736,0,1.881,0.44,1.881,2.267v3.169h-0.969v-3.07c0-0.857-0.318-1.572-1.232-1.572c-0.627,0-1.121,0.451-1.297,0.99
	c-0.045,0.12-0.066,0.285-0.066,0.45v3.202h-0.969V37.153z"/>
</svg>
